#!OML:ASF F:\VICON\USERDATA\INSTALL\rory3\rory3.ASF
:FULLY-SPECIFIED
:DEGREES
476
root -8.35146 17.8216 12.5796 230.246 -84.6096 -232.669
lowerback 11.203 -0.194493 -4.47658
upperback 0.924282 -0.831021 0.524591
thorax -5.24861 -0.321448 3.20723
lowerneck -23.0211 -5.09094 -11.5294
upperneck 29.1172 -6.16594 8.29146
head 14.5415 -2.94584 4.13631
rclavicle -1.14301e-015 3.57812e-015
rhumerus -40.7367 -19.8809 -73.8053
rradius 26.8701
rwrist 8.65477
rhand -15.599 8.98242
rfingers 7.12502
rthumb 10.587 -20.7309
lclavicle -1.14301e-015 3.57812e-015
lhumerus -31.1242 4.30275 83.4186
lradius 33.0728
lwrist -3.86524
lhand -18.1901 24.5548
lfingers 7.12502
lthumb 8.08685 54.38
rfemur -21.6415 -0.582801 17.9933
rtibia 27.4121
rfoot -1.17566 1.01251
rtoes 8.76461
lfemur 20.7537 -4.53416 -28.5515
ltibia 8.6384
lfoot -1.25669 -3.27119
ltoes -23.9174
477
root -8.48829 17.8445 12.5536 230.19 -84.6887 -232.591
lowerback 11.1226 -0.188613 -4.42084
upperback 0.946613 -0.810238 0.553686
thorax -5.18226 -0.314244 3.20154
lowerneck -23.1656 -5.10743 -11.5679
upperneck 29.1231 -6.16768 8.33604
head 14.5793 -2.94012 4.16136
rclavicle 1.04362e-015 -1.43125e-014
rhumerus -40.6401 -19.9818 -73.7829
rradius 26.7277
rwrist 8.51275
rhand -15.5436 8.95449
rfingers 7.12502
rthumb 10.6405 -20.7561
lclavicle 1.04362e-015 -1.43125e-014
lhumerus -31.5597 4.62583 83.4017
lradius 32.6735
lwrist -4.09169
lhand -18.2595 24.6136
lfingers 7.12502
lthumb 8.01988 54.4415
rfemur -21.0946 -0.531085 18.133
rtibia 27.3696
rfoot -1.6367 0.900439
rtoes 8.94784
lfemur 19.5706 -4.77865 -28.4416
ltibia 11.5039
lfoot -0.864688 -3.72043
ltoes -23.5127
478
root -8.62403 17.8685 12.5258 229.644 -84.7986 -231.996
lowerback 11.0283 -0.133699 -4.42967
upperback 0.943832 -0.727506 0.654678
thorax -5.13828 -0.27296 3.2988
lowerneck -23.1441 -5.13259 -11.5662
upperneck 28.989 -6.19012 8.3339
head 14.5181 -2.94555 4.15139
rclavicle -6.11263e-015 -1.35174e-014
rhumerus -40.5555 -20.0376 -73.646
rradius 26.5329
rwrist 8.49553
rhand -15.3493 9.01864
rfingers 7.12502
rthumb 10.8279 -20.6822
lclavicle -6.11263e-015 -1.35174e-014
lhumerus -32.0074 4.74626 83.5036
lradius 32.2583
lwrist -4.12296
lhand -18.4685 25.1571
lfingers 7.12502
lthumb 7.8182 54.9925
rfemur -20.5409 -0.691904 18.3803
rtibia 27.2041
rfoot -1.95673 1.20179
rtoes 8.92194
lfemur 18.3721 -5.04691 -28.2791
ltibia 14.3096
lfoot -0.166246 -4.02946
ltoes -22.4795
479
root -8.76179 17.8932 12.5003 228.677 -84.9383 -230.958
lowerback 10.9013 -0.134214 -4.31745
upperback 0.924724 -0.703557 0.728393
thorax -5.08984 -0.263181 3.3074
lowerneck -23.145 -5.13621 -11.4839
upperneck 28.9324 -6.17598 8.20794
head 14.4828 -2.94506 4.08508
rclavicle 3.57812e-015 -9.14409e-015
rhumerus -40.4702 -19.9591 -73.6552
rradius 26.3617
rwrist 8.56627
rhand -15.2558 9.09845
rfingers 7.12502
rthumb 10.918 -20.5977
lclavicle 3.57812e-015 -9.14409e-015
lhumerus -32.4327 5.07633 83.4521
lradius 31.7483
lwrist -4.33312
lhand -17.9954 25.1779
lfingers 7.12502
lthumb 8.27478 54.9959
rfemur -19.974 -1.04631 18.6851
rtibia 26.9428
rfoot -2.28118 1.68781
rtoes 8.75306
lfemur 17.1247 -5.09784 -27.9545
ltibia 17.0735
lfoot 0.588982 -4.4336
ltoes -21.3203
480
root -8.90067 17.9175 12.4773 228.095 -85.1555 -230.26
lowerback 10.7147 -0.199413 -4.02943
upperback 0.898062 -0.744859 0.749077
thorax -5.013 -0.290252 3.16941
lowerneck -23.1542 -5.12499 -11.5001
upperneck 28.8787 -6.14243 8.20411
head 14.4573 -2.93084 4.09127
rclavicle -1.51076e-014 -3.18055e-015
rhumerus -40.3754 -19.8839 -73.8127
rradius 26.2961
rwrist 8.53535
rhand -15.2351 9.05391
rfingers 7.12502
rthumb 10.938 -20.6412
lclavicle -1.51076e-014 -3.18055e-015
lhumerus -32.8616 5.19929 83.3978
lradius 31.3355
lwrist -4.39785
lhand -17.6185 25.2296
lfingers 7.12502
lthumb 8.63851 55.0329
rfemur -19.4169 -1.415 19.0234
rtibia 26.6202
rfoot -2.63419 1.95217
rtoes 7.93077
lfemur 15.7879 -5.01934 -27.5106
ltibia 19.8186
lfoot 1.56022 -4.97752
ltoes -20.5906
481
root -9.0372 17.944 12.4527 228.538 -85.3905 -230.606
lowerback 10.5545 -0.252338 -3.82748
upperback 0.900426 -0.782405 0.774375
thorax -4.91997 -0.314664 3.08443
lowerneck -23.2276 -5.15918 -11.5836
upperneck 28.8201 -6.1643 8.27505
head 14.4567 -2.93537 4.12912
rclavicle 1.14301e-014 -7.95139e-016
rhumerus -40.2394 -19.9465 -73.9178
rradius 26.285
rwrist 8.64072
rhand -15.2358 9.01109
rfingers 7.12502
rthumb 10.9373 -20.684
lclavicle 1.14301e-014 -7.95139e-016
lhumerus -33.195 5.1913 83.442
lradius 30.881
lwrist -4.51233
lhand -17.8697 25.5053
lfingers 7.12502
lthumb 8.3961 55.3184
rfemur -18.8193 -1.59216 19.251
rtibia 26.288
rfoot -2.95954 1.88138
rtoes 8.12346
lfemur 14.4201 -4.86939 -27.0247
ltibia 22.5229
lfoot 3.12422 -5.50297
ltoes -18.7877
482
root -9.17179 17.9679 12.4268 227.578 -85.7457 -229.549
lowerback 10.4097 -0.251932 -3.5441
upperback 0.890768 -0.737017 0.877829
thorax -4.85481 -0.298041 3.02386
lowerneck -23.295 -5.23633 -11.5959
upperneck 28.8355 -6.26277 8.27108
head 14.4916 -2.97729 4.1101
rclavicle -1.92324e-014 4.37326e-015
rhumerus -40.2002 -19.9577 -73.932
rradius 26.3784
rwrist 8.87066
rhand -15.2201 8.95595
rfingers 7.12502
rthumb 10.9525 -20.7384
lclavicle -1.92324e-014 4.37326e-015
lhumerus -33.5454 4.84046 83.6319
lradius 30.4184
lwrist -4.69444
lhand -18.1544 25.501
lfingers 7.12502
lthumb 8.12128 55.3249
rfemur -18.2121 -1.47222 19.6239
rtibia 25.9749
rfoot -3.24404 1.55768
rtoes 9.29034
lfemur 13.0576 -4.75558 -26.3587
ltibia 25.1495
lfoot 5.09861 -5.87609
ltoes -15.7309
483
root -9.30404 17.9831 12.4002 226.404 -86.0662 -228.248
lowerback 10.2484 -0.220168 -3.28576
upperback 0.863732 -0.653453 0.977064
thorax -4.80105 -0.261331 2.96768
lowerneck -23.2923 -5.28735 -11.5675
upperneck 28.7527 -6.31594 8.20833
head 14.4579 -3.00203 4.06556
rclavicle -1.9133e-014 0
rhumerus -40.217 -20.0051 -73.9182
rradius 26.5541
rwrist 9.12585
rhand -15.0987 8.93827
rfingers 7.12502
rthumb 11.0696 -20.7498
lclavicle -1.9133e-014 0
lhumerus -33.8819 4.35338 83.8583
lradius 30.0196
lwrist -5.07651
lhand -17.8893 25.4215
lfingers 7.12502
lthumb 8.37721 55.2354
rfemur -17.665 -1.44151 20.0172
rtibia 25.6751
rfoot -3.50881 1.32979
rtoes 9.66386
lfemur 11.6548 -4.60679 -25.7279
ltibia 27.6832
lfoot 7.16072 -6.47006
ltoes -13.2316
484
root -9.43269 18.0001 12.3735 226.224 -86.3693 -227.949
lowerback 10.1526 -0.238355 -2.98767
upperback 0.813318 -0.638878 0.99397
thorax -4.80424 -0.258699 2.81377
lowerneck -23.2502 -5.33564 -11.6624
upperneck 28.6515 -6.36786 8.28304
head 14.4186 -3.02243 4.09989
rclavicle 1.14301e-015 4.77083e-015
rhumerus -40.2501 -20.1723 -73.965
rradius 26.7329
rwrist 9.41598
rhand -14.8435 9.17499
rfingers 7.12502
rthumb 11.3156 -20.4998
lclavicle 1.14301e-015 4.77083e-015
lhumerus -34.2144 4.01072 83.9303
lradius 29.6806
lwrist -5.49436
lhand -17.3338 25.3307
lfingers 7.12502
lthumb 8.91324 55.1225
rfemur -17.1427 -1.6159 20.3183
rtibia 25.3567
rfoot -3.78601 1.33424
rtoes 11.0429
lfemur 10.2085 -4.39673 -25.1245
ltibia 30.1376
lfoot 9.18717 -7.43678
ltoes -11.3799
485
root -9.56175 18.0208 12.3463 224.91 -86.7437 -226.611
lowerback 10.1461 -0.276471 -2.62318
upperback 0.784841 -0.645243 1.04606
thorax -4.83314 -0.267874 2.66331
lowerneck -23.1098 -5.41282 -11.6457
upperneck 28.5199 -6.46959 8.21392
head 14.3407 -3.07349 4.04405
rclavicle -4.47266e-016 -7.15625e-015
rhumerus -40.2778 -20.1451 -74.099
rradius 27.0114
rwrist 9.59901
rhand -14.5693 9.15145
rfingers 7.12502
rthumb 11.5801 -20.5086
lclavicle -4.47266e-016 -7.15625e-015
lhumerus -34.5886 3.86159 83.9495
lradius 29.4197
lwrist -6.06249
lhand -17.1269 25.344
lfingers 7.12502
lthumb 9.1129 55.1271
rfemur -16.4853 -1.69287 20.6782
rtibia 25.0292
rfoot -4.06286 1.3913
rtoes 13.146
lfemur 8.85508 -4.24019 -24.4361
ltibia 32.5294
lfoot 11.127 -8.47977
ltoes -9.09965
486
root -9.68835 18.0355 12.3224 223.069 -87.1423 -224.854
lowerback 10.256 -0.277959 -2.24065
upperback 0.801493 -0.603217 1.12629
thorax -4.88276 -0.254341 2.52665
lowerneck -22.9998 -5.51518 -11.5117
upperneck 28.3942 -6.61552 8.04243
head 14.2681 -3.14346 3.91706
rclavicle 1.04362e-014 -1.59028e-015
rhumerus -40.2433 -19.5513 -74.4878
rradius 27.413
rwrist 9.2741
rhand -14.5839 8.99596
rfingers 7.12502
rthumb 11.566 -20.6649
lclavicle 1.04362e-014 -1.59028e-015
lhumerus -34.8952 3.97126 83.9565
lradius 29.1561
lwrist -7.24985
lhand -16.9815 25.2529
lfingers 7.12502
lthumb 9.2532 55.0299
rfemur -15.6776 -1.70562 21.082
rtibia 24.653
rfoot -4.36171 1.20502
rtoes 13.6346
lfemur 7.61621 -4.20509 -23.8171
ltibia 34.8779
lfoot 12.7781 -9.52478
ltoes -7.2061
487
root -9.81006 18.0489 12.3009 220.761 -87.531 -222.579
lowerback 10.3439 -0.279935 -1.85005
upperback 0.820003 -0.560593 1.18792
thorax -4.918 -0.241232 2.36543
lowerneck -23.13 -5.56628 -11.7127
upperneck 28.4976 -6.70361 8.33072
head 14.3746 -3.16338 4.05677
rclavicle -3.08116e-015 2.38542e-015
rhumerus -40.1358 -19.5283 -74.5657
rradius 27.5561
rwrist 9.67862
rhand -14.4619 9.23956
rfingers 7.12502
rthumb 11.6837 -20.4146
lclavicle -3.08116e-015 2.38542e-015
lhumerus -35.1785 4.03737 83.942
lradius 29.0027
lwrist -8.41436
lhand -16.7226 25.2069
lfingers 7.12502
lthumb 9.50297 54.9727
rfemur -14.9373 -2.0927 21.4993
rtibia 24.2029
rfoot -4.64193 1.3237
rtoes 14.1196
lfemur 6.28318 -4.08648 -23.2093
ltibia 37.1907
lfoot 14.2208 -11.0057
ltoes -4.0171
488
root -9.93044 18.0638 12.2806 214.981 -87.9779 -216.819
lowerback 10.4101 -0.284338 -1.47076
upperback 0.845043 -0.515826 1.38223
thorax -4.93268 -0.226387 2.34878
lowerneck -23.1784 -5.61825 -11.7722
upperneck 28.4921 -6.69656 8.19209
head 14.3786 -3.18274 4.00981
rclavicle -9.83984e-015 8.74653e-015
rhumerus -40.1196 -21.0754 -73.6389
rradius 27.4161
rwrist 11.5808
rhand -13.8913 10.1279
rfingers 7.12502
rthumb 12.2339 -19.4943
lclavicle -9.83984e-015 8.74653e-015
lhumerus -35.4786 3.65398 84.2754
lradius 28.9982
lwrist -8.76102
lhand -16.7728 25.4432
lfingers 7.12502
lthumb 9.45455 55.2111
rfemur -14.1837 -2.36029 21.9994
rtibia 23.7039
rfoot -4.87557 1.45276
rtoes 15.5741
lfemur 4.90858 -3.87414 -22.4239
ltibia 39.4805
lfoot 15.7025 -12.5445
ltoes 2.40112
489
root -10.0478 18.0776 12.261 206.023 -88.3872 -207.921
lowerback 10.6113 -0.24537 -1.11953
upperback 0.812465 -0.413961 1.6243
thorax -5.08521 -0.180404 2.3922
lowerneck -23.0201 -5.73311 -11.4781
upperneck 28.3194 -6.72979 7.46391
head 14.2286 -3.26088 3.64553
rclavicle 1.1778e-014 -9.93923e-015
rhumerus -40.2452 -22.0069 -72.9002
rradius 27.6118
rwrist 12.8681
rhand -13.4732 10.5615
rfingers 7.12502
rthumb 12.637 -19.0362
lclavicle 1.1778e-014 -9.93923e-015
lhumerus -35.8178 3.33154 84.7078
lradius 28.9469
lwrist -9.2015
lhand -16.8952 25.7619
lfingers 7.12502
lthumb 9.33646 55.5352
rfemur -13.3592 -2.3384 22.5067
rtibia 23.1401
rfoot -5.08823 1.34948
rtoes 16.2218
lfemur 3.58501 -3.77179 -21.6576
ltibia 41.74
lfoot 16.6896 -13.2179
ltoes 7.98319
490
root -10.1591 18.0853 12.2381 188.26 -88.7595 -190.272
lowerback 10.9363 -0.268996 -0.184065
upperback 0.77974 -0.341417 1.46455
thorax -5.31082 -0.165891 1.68966
lowerneck -22.8495 -5.78566 -10.941
upperneck 28.1335 -6.94184 7.22492
head 14.1014 -3.32565 3.41093
rclavicle -6.06293e-015 1.03368e-014
rhumerus -40.0505 -20.9943 -73.9492
rradius 27.8518
rwrist 11.9595
rhand -13.5924 10.3136
rfingers 7.12502
rthumb 12.5221 -19.2912
lclavicle -6.06293e-015 1.03368e-014
lhumerus -36.0921 2.50797 84.6036
lradius 28.9327
lwrist -9.47516
lhand -16.8401 26.0268
lfingers 7.12502
lthumb 9.38963 55.7976
rfemur -12.4888 -2.61081 23.1507
rtibia 22.5259
rfoot -5.21912 1.38711
rtoes 16.2227
lfemur 2.37155 -3.80505 -20.8438
ltibia 43.9394
lfoot 16.4979 -13.1315
ltoes 8.27126
